<?xml version="1.0" encoding="utf-8"?>
<!-- Generator: Adobe Illustrator 26.0.2, SVG Export Plug-In . SVG Version: 6.00 Build 0)  -->
<svg version="1.1" id="Layer_1" xmlns="http://www.w3.org/2000/svg" xmlns:xlink="http://www.w3.org/1999/xlink" x="0px" y="0px"
	 viewBox="0 0 2437.83 860.83" style="enable-background:new 0 0 2437.83 860.83;" xml:space="preserve">
<style type="text/css">
	.st0{fill:#4E311D;}
	.st1{fill:#35548A;}
	.st2{fill:#FDFEFE;}
	.st3{fill:#F6D657;}
	.st4{fill:#B4C7D5;}
	.st5{font-family:'MyriadPro-Regular';}
	.st6{font-size:68.8804px;}
</style>
<g>
	<g>
		<path class="st0" d="M508.62,293.95c0.93-2.09,3.5-3.73,5.71-2.52c2.06,1.18,1.89,3.85,2.22,5.89c0.73,5.27,0.86,10.73,2.87,15.73
			c0.82,2.59,2.62,5.09,1.94,7.93c-3.4-0.43-4.57-4.01-5.6-6.76c-2.61-5.97-1.75-12.65-3.54-18.79c-2.9,5.33-3.22,11.49-4.04,17.35
			c-0.06,1.78-2.02,1.57-3.01,0.66c-4.85-3.5-8.07-8.73-11.19-13.72c1.08,5.72,3.82,11.01,7.39,15.57c1.09,1.29,1.51,2.92,1.62,4.57
			c-6.28,0.56-12.24-2.21-18.53-1.96c-9.33-1.11-18.24,2.29-27.33,3.64c-18.01,4.41-35.25,12.41-49.77,24
			c-4.82,4.29-8.82,9.42-12.49,14.7c-0.91-1.37-1.9-3.03-1.01-4.68c5.47-8.8,13.49-15.74,22.48-20.8
			c9.03-6.33,19.56-9.86,29.58-14.24c8.12-2.86,16.7-3.92,25.04-5.91c8.61-1.06,17.4-0.82,25.93,0.7
			c-3.62-5.58-6.35-12.05-6.04-18.82c-0.08-1.88,2.38-2.03,3.27-0.7c3.77,3.89,6.23,8.91,10.41,12.46
			C505.26,303.34,506.42,298.41,508.62,293.95z"/>
		<g>
			<path class="st0" d="M523.73,321.59c-0.18-1.34,0.19-3.75,2.12-3.04c9.71,3.1,19.56,6.47,27.81,12.66
				c16.2,9.74,28.75,24.97,36.03,42.35c3.33,7.05,6.4,14.28,8.71,21.74c9.63,38.19,5.85,78.23-1.18,116.52
				c-3.47,9.77-4.85,20.76-11.93,28.82c-5.85,8.57-19.14,10.53-27.07,3.7c-6.63,2.62-13.3,5.16-20.41,6.17
				c6.56-0.33,13.75,1.06,17.98,6.58c3.33,2.79,0.97,8.12-2.79,9.11c-12.28,3.84-25.43,2.89-37.97,1.07
				c-6.1-0.61-11.44-4.41-14.03-9.94c-11,1.17-22.07,1.4-33.12,1.06c-1.71-0.03-2.11,2.12-3.11,3.17c-2.7,4.36-7.89,6.2-12.74,6.83
				c-12.19,1.66-24.91,2.52-36.83-1.16c-2.91-0.81-5.18-3.84-4.54-6.89c2.98-5.43,9.08-8.69,15.21-8.8
				c-8.75-3.67-18.49-5.5-26.27-11.09c-0.38-0.84-0.4-2.26,0.73-2.51c3.31-0.6,6,2.18,8.93,3.29c13.4,5.42,27.47,9.59,41.92,10.87
				c19.65,3.2,39.64,0.9,59.41-0.06c15.22-1.89,30.38-5.17,44.52-11.26c-5.37-9.74-6.46-21.18-5.85-32.11
				c-0.38-18.28,2.81-36.71-0.48-54.84c-0.56-5.7-3.47-10.86-6.9-15.31c-5.31-6.13-13.65-7.84-20.76-11.01
				c-13.54-5.87-28.53-6.2-43.01-7.37c-18.05,0.08-36.14,0.27-54.14,1.79c-8.31,0.33-17.63,0.1-24.48,5.59
				c-3.36,2.35-3.8,6.73-5.11,10.29c-3.92,12.21-5.1,25.02-5.58,37.78c-0.85,7.83,1.25,15.5,2.17,23.21
				c1.24,9.61,4.6,18.74,8.12,27.71c1.56,3.78,1.67,8.25-0.93,11.61c-3.35,5.08-11.72,4.97-14.86-0.25
				c-4.71-8.33-9-17.1-10.91-26.55c-6.75-27.27-6.94-55.84-3-83.55c2.26-16.35,5.88-32.62,12.26-47.89
				c1.94-5.13,3.67-10.44,6.86-14.96c1.16-1.17,2.84-0.58,3.9,0.39c-1.34,4.97-4.48,9.19-5.95,14.12
				c-6.37,15.18-10.44,31.25-12.48,47.57c-5.57,30.5-4.55,62.46,4.35,92.23c2.59,6.24,3.92,13.56,9.22,18.21
				c4.31,3.35,10.43-1.48,9.29-6.49c-1.59-7.42-5.77-14.01-7.55-21.39c-6.13-24.08-5.75-49.77,1.5-73.58
				c0.3-7.1,6.02-12.42,12.14-15.16c5.99-2.55,12.62-2.52,19.02-2.75c18.25-1.45,36.59-1.85,54.9-1.69
				c7.94,1.27,16.06,0.41,23.93,2.22c7.52,1.43,15.42,1.99,22.34,5.53c4.68,2.32,9.86,3.44,14.45,5.98
				c8.7,3.45,13.21,12.74,15.6,21.21c1.27,16.3,1.4,32.72,0.43,49.05c-0.1,12.67-1.34,26.07,4.66,37.73
				c3.95,6.35,13.3,8.4,19.4,3.89c8.85-6.22,11.19-17.29,14.32-26.95c7.66-36.91,12.5-75.52,4.05-112.76
				c-1.46-8.3-5.45-15.81-8.35-23.65c-2.98-7.91-7.65-15.02-12.31-22.02c-7.85-11.47-19.34-19.84-31.25-26.7
				C537.81,326.1,530.83,323.54,523.73,321.59z M505.27,556.56c1.74,2.96,4.17,5.78,7.77,6.28c11.7,2.55,23.97,2.68,35.77,0.66
				c1.78-0.48,4.7-0.9,4.77-3.24c-2.16-3.05-5.5-5.28-9.2-5.91C531.33,551.62,518.27,555.48,505.27,556.56z M416,559.35
				c-0.8,0.78-2.16,1.92-1.25,3.12c2.17,2.07,5.43,2.08,8.22,2.53c7.94,1.29,16,0.87,23.98,0.21c5.74-0.67,12.79-1.35,15.53-7.33
				c-8.38-1.13-16.79-2.12-25.14-3.42C430.12,554.43,421.54,553.78,416,559.35z"/>
		</g>
		<g>
			<path class="st0" d="M500.05,344.55c5.84-2.37,9.92,4.96,10.1,9.96c0.26,5.74,0.45,11.87-2.17,17.16
				c-1.32,2.67-5.06,4.71-7.75,2.82c-3.67-2.96-3.36-8.16-3.86-12.38C496.15,356.18,495.89,349.26,500.05,344.55z M501.18,368.33
				c0.11,0.99,1,3.27,2.17,1.88c2.73-4.24,2.57-9.59,2.47-14.45c-0.32-2.82-1.08-5.98-3.68-7.56
				C499.31,354.52,500.1,361.7,501.18,368.33z"/>
		</g>
		<g>
			<path class="st0" d="M424.83,345.03c2.6-1.12,5.63,0.59,6.95,2.9c4.18,6.51,2.59,14.76,1.03,21.86
				c-0.57,3.71-4.02,7.64-8.05,5.65c-4.45-3.33-4.15-9.59-3.98-14.57C421.2,355.5,420.61,349.09,424.83,345.03z M426.08,348.38
				c-1.12,6.42-2.3,12.95-1.62,19.49c0.46,1.59,0.76,3.98,2.73,4.29c2.06-1.58,2.29-4.38,2.86-6.72c0.76-4.98,1.65-10.4-0.68-15.12
				C428.79,349.02,427.22,348.87,426.08,348.38z"/>
		</g>
		<g>
			<path class="st0" d="M457.91,370.58c7.63-1.38,16.63,6.98,12.77,14.7c-1.52,5.36-5.03,10.24-9.95,12.94
				c-6.08,1.51-10.26-5.43-10.81-10.65c0.24-2.58-3.13-3.75-2.36-6.36C447.85,375.65,452.69,371.57,457.91,370.58z M451.38,382.17
				c5.48-0.14,10.97,0.29,16.45-0.08c-0.5-3.95-3.78-6.84-7.56-7.59C455.84,374.22,451.52,377.55,451.38,382.17z M455.38,385.94
				c-3.35,2.39,0.54,6.32,2.36,8.44c4.38,0.59,7.96-3.16,7.93-7.39C462.87,384.85,458.68,385.72,455.38,385.94z"/>
		</g>
		<g>
			<path class="st0" d="M451.13,425.02c2.6-1.61,6.41-0.83,8.26,1.59c2.42,2.93,2.06,7.44,0.08,10.5c-2.31,2.43-6.85,2.45-9.17-0.01
				C446.81,433.93,448.27,428.03,451.13,425.02z M452.97,428.7c-3.22,2.43,0.01,8.4,3.77,6.25
				C460.68,432.67,456.73,425.95,452.97,428.7z"/>
		</g>
		<g>
			<path class="st0" d="M451.11,444.98c0.49-1.64,0.09-4.15,2.11-4.82c1.79-0.16,3.45,0.99,3.96,2.69
				c5.3,16.28,7.28,33.36,10.93,50.03c0.38,1.71,0.27,3.48-0.28,5.15c0.39,0.56,0.78,1.12,1.18,1.69
				c-1.31,7.03-5.06,13.3-8.21,19.63c-1.19,1.59-2.2,4.9-4.78,3.81c-4.19-6.31-8.35-12.74-11.42-19.7
				c-1.17-2.83-3.47-5.59-2.56-8.84C444.84,478.04,447.23,461.35,451.11,444.98z M450.32,470.16c-1.83,7.48-2.69,15.14-3.92,22.73
				c-0.98,4.08,1.76,7.64,3.14,11.27c2.62,4.38,4.29,9.31,7.56,13.29c3.01-6.15,6.05-12.38,7.77-19.04
				c-3.73-16.95-5.22-34.43-10.29-51.12C452.59,454.8,452.11,462.61,450.32,470.16z"/>
		</g>
	</g>
	<g>
		<g>
			<path class="st1" d="M512.22,295.42c1.79,6.14,0.93,12.82,3.54,18.79c1.03,2.75,2.2,6.33,5.6,6.76c0.78,0.22,1.58,0.4,2.37,0.62
				c7.1,1.95,14.08,4.51,20.42,8.29c11.91,6.85,23.41,15.23,31.25,26.7c4.66,7,9.34,14.11,12.31,22.02
				c2.9,7.84,6.89,15.35,8.35,23.65c8.45,37.24,3.61,75.85-4.05,112.76c-3.13,9.66-5.47,20.73-14.32,26.95
				c-6.1,4.52-15.45,2.47-19.4-3.89c-6-11.66-4.77-25.06-4.66-37.73c0.97-16.33,0.83-32.75-0.43-49.05
				c-2.39-8.47-6.91-17.77-15.6-21.21c-4.59-2.54-9.77-3.66-14.45-5.98c-6.92-3.54-14.82-4.1-22.34-5.53
				c-7.87-1.8-15.99-0.95-23.93-2.22c-18.31-0.16-36.64,0.25-54.9,1.69c-6.4,0.22-13.03,0.19-19.02,2.75
				c-6.12,2.75-11.84,8.06-12.14,15.16c-7.25,23.81-7.63,49.5-1.5,73.58c1.78,7.38,5.96,13.98,7.55,21.39
				c1.13,5.01-4.99,9.84-9.29,6.49c-5.3-4.64-6.63-11.96-9.22-18.21c-8.9-29.78-9.92-61.73-4.35-92.23
				c2.04-16.32,6.11-32.39,12.48-47.57c1.47-4.93,4.61-9.15,5.95-14.12c0.53-1.8,1.42-3.48,2.44-5.06
				c3.67-5.28,7.68-10.4,12.49-14.7c14.53-11.59,31.76-19.58,49.77-24c9.09-1.35,18-4.75,27.33-3.64
				c6.29-0.25,12.24,2.52,18.53,1.96c-0.11-1.65-0.53-3.29-1.62-4.57c-3.57-4.56-6.31-9.85-7.39-15.57
				c3.13,4.99,6.34,10.21,11.19,13.72c0.99,0.9,2.95,1.11,3.01-0.66C509,306.91,509.32,300.76,512.22,295.42z M500.05,344.55
				c-4.17,4.71-3.91,11.63-3.68,17.54c0.5,4.22,0.19,9.43,3.86,12.38c2.69,1.9,6.43-0.15,7.75-2.82c2.62-5.29,2.43-11.42,2.17-17.16
				C509.97,349.5,505.89,342.18,500.05,344.55z M424.83,345.03c-4.22,4.06-3.63,10.47-4.05,15.84c-0.17,4.98-0.47,11.24,3.98,14.57
				c4.03,1.99,7.48-1.94,8.05-5.65c1.56-7.1,3.15-15.35-1.03-21.86C430.46,345.61,427.43,343.9,424.83,345.03z M457.91,370.58
				c-5.21,0.99-10.05,5.07-10.35,10.63c-0.76,2.61,2.61,3.78,2.36,6.36c0.55,5.22,4.73,12.16,10.81,10.65
				c4.92-2.7,8.43-7.57,9.95-12.94C474.54,377.55,465.53,369.2,457.91,370.58z"/>
		</g>
	</g>
	<g>
		<path class="st2" d="M426.08,348.38c1.15,0.5,2.71,0.64,3.29,1.94c2.33,4.71,1.44,10.14,0.68,15.12c-0.57,2.34-0.8,5.14-2.86,6.72
			c-1.97-0.31-2.27-2.7-2.73-4.29C423.78,361.33,424.96,354.8,426.08,348.38z"/>
		<path class="st2" d="M501.18,368.33c-1.07-6.63-1.86-13.81,0.96-20.13c2.59,1.59,3.36,4.75,3.68,7.56
			c0.1,4.86,0.26,10.21-2.47,14.45C502.18,371.6,501.28,369.32,501.18,368.33z"/>
		<g>
			<path class="st2" d="M423.99,421.91c18-1.52,36.08-1.71,54.14-1.79c14.47,1.17,29.46,1.5,43.01,7.37
				c7.11,3.17,15.46,4.89,20.76,11.01c3.43,4.45,6.34,9.62,6.9,15.31c3.29,18.13,0.11,36.56,0.48,54.84
				c-0.61,10.93,0.48,22.37,5.85,32.11c-14.14,6.09-29.3,9.38-44.52,11.26c-19.77,0.96-39.75,3.26-59.41,0.06
				c-14.45-1.27-28.51-5.45-41.92-10.87c-2.93-1.11-5.63-3.89-8.93-3.29c-0.54,0.04-1.62,0.13-2.17,0.17
				c2.6-3.36,2.49-7.83,0.93-11.61c-3.52-8.96-6.89-18.1-8.12-27.71c-0.92-7.71-3.02-15.39-2.17-23.21
				c0.48-12.76,1.66-25.57,5.58-37.78c1.31-3.57,1.75-7.94,5.11-10.29C406.36,422.01,415.67,422.24,423.99,421.91z M451.13,425.02
				c-2.87,3.01-4.33,8.91-0.83,12.07c2.32,2.46,6.86,2.45,9.17,0.01c1.99-3.06,2.34-7.57-0.08-10.5
				C457.54,424.19,453.73,423.42,451.13,425.02z M451.11,444.98c-3.88,16.37-6.27,33.06-9.08,49.66c-0.91,3.25,1.39,6.01,2.56,8.84
				c3.08,6.96,7.24,13.38,11.42,19.7c2.57,1.09,3.59-2.22,4.78-3.81c3.15-6.33,6.91-12.6,8.21-19.63c-0.4-0.57-0.79-1.13-1.18-1.69
				c0.55-1.67,0.66-3.44,0.28-5.15c-3.64-16.67-5.63-33.75-10.93-50.03c-0.52-1.71-2.17-2.85-3.96-2.69
				C451.2,440.83,451.6,443.34,451.11,444.98z"/>
		</g>
	</g>
	<g>
		<path class="st3" d="M451.38,382.17c0.13-4.62,4.45-7.96,8.89-7.68c3.77,0.75,7.05,3.64,7.56,7.59
			C462.35,382.46,456.86,382.03,451.38,382.17z"/>
		<path class="st3" d="M455.38,385.94c3.31-0.22,7.5-1.08,10.29,1.05c0.03,4.23-3.55,7.98-7.93,7.39
			C455.92,392.26,452.03,388.33,455.38,385.94z"/>
		<path class="st3" d="M505.27,556.56c13-1.08,26.06-4.94,39.12-2.21c3.7,0.62,7.04,2.86,9.2,5.91c-0.07,2.34-2.99,2.76-4.77,3.24
			c-11.8,2.03-24.07,1.9-35.77-0.66C509.44,562.34,507.01,559.52,505.27,556.56z"/>
		<path class="st3" d="M416,559.35c5.54-5.56,14.12-4.91,21.34-4.89c8.35,1.31,16.75,2.29,25.14,3.42
			c-2.73,5.98-9.79,6.66-15.53,7.33c-7.98,0.66-16.04,1.08-23.98-0.21c-2.8-0.45-6.05-0.46-8.22-2.53
			C413.84,561.27,415.2,560.13,416,559.35z"/>
	</g>
	<g>
		<path class="st4" d="M452.97,428.7c3.77-2.76,7.71,3.96,3.77,6.25C452.97,437.1,449.75,431.14,452.97,428.7z"/>
		<path class="st4" d="M450.32,470.16c1.78-7.56,2.26-15.37,4.26-22.87c5.06,16.68,6.56,34.17,10.29,51.12
			c-1.72,6.66-4.76,12.89-7.77,19.04c-3.27-3.98-4.94-8.91-7.56-13.29c-1.38-3.62-4.12-7.19-3.14-11.27
			C447.64,485.3,448.5,477.64,450.32,470.16z"/>
	</g>
</g>
<text transform="matrix(1 0 0 1 1023.0655 559.1473)" class="st0 st5 st6">more than code</text>
<g>
	<g>
		<path class="st0" d="M655.27,334.26c1.82-1.18,3.61-2.8,5.94-2.64c16.69-0.12,33.38,0.3,50.07,0.08
			c12.26-1.05,24.57,5.13,31.94,14.8c10.63,8.97,11.58,24.23,8.9,36.96c-0.04,7.97-6.72,13.06-10.81,19.12
			c22.41,15.74,22.65,51.96,3.72,70.56c-10.47,9.62-25.07,11.5-38.72,12.22c-16.02-0.05-32.02,0.47-48.05,0.59
			c-0.73-1.16-2.35-2-2.22-3.52c0.22-20.01-0.48-39.99-0.43-59.99C657.04,393.05,656.05,363.65,655.27,334.26z M659.34,335.38
			 M658.5,342.53c2.92-2.13,5.35-4.83,7.56-7.67C662.12,335.14,658.62,338.52,658.5,342.53z M658.58,347.19
			c4.39-4.05,8.69-8.21,12.95-12.4C665.22,335.02,659.83,341.39,658.58,347.19z M667.13,340.16c-3.04,3.95-9.43,6.63-8.29,12.45
			c6.47-5.62,12.69-11.59,18.61-17.81C673.01,333.96,669.98,337.41,667.13,340.16z M659.34,353.62c0.2,4.5,0.17,8.99-0.04,13.49
			c11.32-11.22,23.3-21.74,35.14-32.38c-5.69-1.36-9.01,3.27-12.88,6.38c1.56-2.3,3.52-4.27,5.51-6.19
			c-2.61,0.02-5.22,0.03-7.83-0.02C672.26,340.76,665.89,347.29,659.34,353.62z M678.12,351.11c1.61-0.3,3.55,0.12,4.82-1.15
			c5.55-4.91,11-9.96,16.17-15.28C690.52,337.04,684.52,345.14,678.12,351.11z M683.09,351.35c1.87-0.33,4.17,0.17,5.54-1.5
			c5.23-5,10.73-9.73,15.76-14.94c-1.05-0.02-3.15-0.04-4.2-0.05C694.55,340.42,688.53,345.6,683.09,351.35z M688.83,351.28
			c2.2-0.26,4.66-0.29,6.24-2.09c5.03-4.91,10.46-9.38,15.48-14.3c-1.07-0.01-3.21-0.03-4.28-0.05
			C700.56,340.44,694.22,345.36,688.83,351.28z M694.56,351.14c8.89,0.2,12.69-10.2,20.09-13.63c0.32-0.75,0.97-2.26,1.3-3.01
			C707.07,336.81,701.47,345.49,694.56,351.14z M714.65,337.51c-4.36,4.71-9.22,8.92-13.87,13.33c2.29,0.34,4.85,0.44,6.58-1.4
			c4.83-4.46,9.49-9.14,13.73-14.16C718.66,334.9,716.4,335.91,714.65,337.51z M707.08,350.8c8.31,0.12,11.33-9.66,18.02-13.2
			c-3.54,4.84-8.35,8.51-12.46,12.83c0.95,0.11,2.84,0.32,3.79,0.43c4.19-3.86,8.09-8.02,12.12-12.03
			c-2.09-1.08-4.21-2.13-6.33-3.14C717.27,340.83,712.18,345.82,707.08,350.8z M729.42,339.2c-3.89,4.02-7.53,8.33-11.97,11.79
			c0.75,0.38,2.25,1.13,3,1.51c3.99-3.93,7.96-7.86,11.8-11.93C731.55,340.23,730.13,339.54,729.42,339.2z M732.68,341.2
			c-3.8,3.96-7.69,7.83-11.52,11.75c0.84,0.64,1.74,1.18,2.62,1.77c3.64-3.68,7.06-7.6,11.12-10.82c-3,4.17-7.06,7.4-10.47,11.21
			c1.53,1.36,3.06,2.76,4.57,4.17c3.44-3.98,7.43-7.42,11.19-11.08c-0.75-0.63-1.52-1.22-2.32-1.77
			c-3.74,3.43-6.83,7.55-10.95,10.56c3.16-4.24,7.23-7.67,10.67-11.66C735.97,343.92,734.34,342.54,732.68,341.2z M739.82,349.85
			c-3.71,3.15-7.01,6.76-10.41,10.24c0.46,0.49,1.37,1.46,1.83,1.94c3.53-3.79,7.26-7.39,10.88-11.09
			C742.7,349.42,740.68,348.89,739.82,349.85z M733.23,361.28c-1.73,1.17-1.16,3.08-0.3,4.64c4.03-3.89,7.98-7.84,12.18-11.54
			c-0.46-0.77-1.38-2.31-1.84-3.09C739.85,354.55,736.48,357.85,733.23,361.28z M664.9,363.01c-2.67,2.67-6.48,5.1-5.65,9.51
			c5.41-5.01,10.44-10.4,16.06-15.18c-0.01-1.47-0.02-2.93-0.03-4.38C671.67,356.16,668.36,359.67,664.9,363.01z M702.24,354.28
			c-7.89,0.54-15.82-0.08-23.73,0.28c-0.07,12.95,0.42,25.89-0.22,38.84c14.22-0.91,29.23,2.44,42.8-3.05
			c8.64-6.07,12.87-19.79,6.09-28.81C721.68,353.78,710.96,352.2,702.24,354.28z M733.9,370.78c4.55-4.16,8.68-8.79,12.78-13.37
			c-0.3-0.58-0.9-1.75-1.2-2.34C741.52,360.08,732.95,363.66,733.9,370.78z M660.63,372.73c-1.5,1.28-1.28,3.37-1.54,5.14
			c5.23-5.34,10.88-10.23,16.25-15.41c-0.02-1.04-0.07-3.14-0.09-4.19C670.03,362.72,665.28,367.7,660.63,372.73z M733.93,372.45
			c0.12,0.77,0.37,2.31,0.5,3.08c4.5-4.18,8.52-8.83,12.63-13.39c1.19-0.96,1.01-2.46,0.69-3.77
			C742.83,362.75,738.48,367.7,733.93,372.45z M729.66,388.07c-8.27,8.77-17.42,16.69-25.6,25.53c3.85,0.95,5.91-2.83,8.44-4.92
			c12.5-12.36,25.06-24.63,37.19-37.35c0.08-1.03,0.25-3.11,0.34-4.14c-6.41,6.49-13.18,12.61-19.53,19.15
			c5.46-7.83,13.16-13.69,19.6-20.66c-0.36-0.99-1.1-2.97-1.46-3.96C742.2,370.4,731.15,376.51,729.66,388.07z M659.18,379.53
			c0,0.76,0,2.27,0.01,3.02c5.23-5.23,10.9-10,16.1-15.26c0-0.86,0-2.58,0.01-3.44C669.92,369.06,663.95,373.74,659.18,379.53z
			 M659.27,384.3c0.13,0.81,0.39,2.44,0.52,3.26c2.67-2.55,5.31-5.13,8.28-7.33c-2.87,4.09-9.25,6.45-8.53,12.25
			c5.44-5.76,14.25-10,15.86-18.09c-1.8,1.29-3.56,2.66-5.36,3.96c1.68-1.75,3.43-3.43,5.19-5.11c0.02-1.56,0.04-3.11,0.06-4.66
			C669.7,373.55,664.44,378.89,659.27,384.3z M708.42,413.87c0.99,0.01,2.98,0.04,3.97,0.05c12.54-12.33,25.09-24.64,37.91-36.67
			c-0.01-1.6-0.02-3.19-0.03-4.77C736.56,386.51,722.37,400.07,708.42,413.87z M713.3,414.22c1.27-0.12,3.81-0.37,5.08-0.5
			c9.38-9.4,18.62-18.95,28.22-28.12c1.88-1.79,3.34-3.99,3.99-6.52C737.4,389.92,725.47,402.25,713.3,414.22z M661.36,392.5
			c-1.89,1.31-1.6,3.67-1.74,5.68c4.99-4.51,9.61-9.41,14.36-14.17c1.38-1.09,1.07-3.01,1.42-4.51
			C670.52,383.61,666.17,388.31,661.36,392.5z M661.2,398.26c-1.68,1.32-1.55,3.55-1.85,5.46c5.51-4.85,10.45-10.3,15.95-15.17
			c-0.02-1.08-0.04-3.24-0.05-4.32C670.67,389.01,665.93,393.63,661.2,398.26z M718.63,414.79c1.14,0.18,2.28,0.36,3.41,0.54
			c6.17-6.22,12.51-12.26,18.91-18.24c2.93-3.13,6.5-6.27,6.97-10.81C737.68,395.25,728.19,405.11,718.63,414.79z M659.27,409.21
			c5.64-4.66,10.46-10.19,15.73-15.24c0.07-1.24,0.13-2.47,0.19-3.69C670.08,396.69,660.93,400.76,659.27,409.21z M698.32,413.91
			c1-0.01,3-0.01,4-0.02c7.34-7.31,14.99-14.34,21.93-22.03C713.53,396.42,706.86,406.43,698.32,413.91z M660.6,409.72
			c-1.32,0.87-1.32,2.46-0.95,3.84c5.71-5.74,11.81-11.05,17.69-16.61c-0.38-0.48-1.13-1.43-1.5-1.9
			C670.37,399.52,665.8,404.96,660.6,409.72z M676.75,398.65c-5.89,5.49-11.96,10.81-17.41,16.75c-0.01,0.93-0.02,2.8-0.02,3.73
			c7.36-8.02,16.22-14.52,23.34-22.75C680.52,396.61,678.27,396.96,676.75,398.65z M687.33,403.24c-3.29,3.86-7.69,6.68-10.42,11.01
			c4.51,0.32,7.2-3.41,10.06-6.2c3.82-3.91,7.8-7.67,11.59-11.6C693.56,395.85,690.55,400.24,687.33,403.24z M705.72,401.81
			c-3.82,4.12-8.25,7.66-11.73,12.09c4.06,0.23,6.31-3.45,8.96-5.86c4.03-4.3,8.57-8.09,12.52-12.46
			C711.07,395.36,708.46,399.03,705.72,401.81z M679.29,401.43c-6.72,6.31-13.72,12.35-19.95,19.16c-0.02,1.01-0.07,3.04-0.09,4.06
			c8.54-10.14,19.25-18.17,28.1-28.01C683.83,396.45,681.64,399.33,679.29,401.43z M668.3,416.49c-3.38,4.01-8.94,7.3-9.29,12.95
			c7.91-7.2,14.89-15.35,22.72-22.64c3.51-3.24,7.71-6.01,9.8-10.48C682.52,401.21,676.33,410.13,668.3,416.49z M682.22,414.08
			c2.12-0.21,4.59,0.14,6.17-1.62c5.59-4.99,10.92-10.28,16.28-15.5c-1.13-0.06-3.38-0.18-4.51-0.24
			C693.95,402.25,688.08,408.18,682.22,414.08z M688.27,413.93c0.99-0.03,2.98-0.07,3.97-0.09c5.85-5.72,11.98-11.2,17.19-17.52
			C700.83,399.6,695.34,408.18,688.27,413.93z M736.75,402.21c-4.46,4.63-9.19,8.97-13.88,13.36c0.57,0.24,1.71,0.71,2.28,0.94
			c5-3.51,8.78-8.45,13.34-12.48C737.91,403.42,737.33,402.81,736.75,402.21z M725.83,417.59c0.5,0.23,1.51,0.69,2.01,0.92
			c4.44-4.3,9.54-8.17,12.87-13.43C734.33,407.07,730.81,413.5,725.83,417.59z M728.38,419.57c0.64,0.34,1.93,1.03,2.57,1.37
			c3.78-4.94,8.82-8.72,12.65-13.61C737.01,407.77,733.54,415.82,728.38,419.57z M730.93,421.56c1.02,0.42,2.35,2.63,3.48,1.24
			c3.88-3.7,7.32-7.82,11.25-11.47c-0.4-0.74-1.22-2.22-1.62-2.96C739.69,412.78,735.21,417.07,730.93,421.56z M733.67,424.32
			c0.45,0.57,1.34,1.69,1.79,2.26c3.79-4.93,10.58-8.28,12.08-14.46C741.94,414.89,738.48,420.47,733.67,424.32z M659.35,430.61
			c-0.01,0.84-0.04,2.52-0.05,3.36c5.41-6.99,13.89-11.71,17.43-19.98C670.63,419.2,665.37,425.3,659.35,430.61z M735.84,427.55
			c0.27,0.68,0.81,2.02,1.08,2.7c4.56-4.09,8.38-8.91,12.98-12.95c-0.37-0.65-1.11-1.95-1.48-2.6
			C744.17,418.92,739.96,423.2,735.84,427.55z M711.27,416.91c-10.93,0.79-21.89,0.04-32.83,0.15c-0.98,15.07-0.57,30.23-0.25,45.32
			c9.4-0.28,18.76,0.57,28.15,0.68c10.9,1.76,23.69-3.1,27.58-14.18C740.8,434.21,727.01,415.89,711.27,416.91z M737.94,430.39
			c0.13,0.99,0.39,2.98,0.52,3.97c4.48-4.42,8.3-9.54,13.31-13.39c-3.64,6.6-12.75,10.3-13.16,18.18c5.23-4.58,9.69-9.93,14.6-14.82
			c-0.78-2.2-1.69-4.35-2.72-6.42C746.3,422.06,742.27,426.38,737.94,430.39z M661,434.1c-1.87,1.62-1.8,4.21-2.18,6.46
			c4.65-3.92,8-9.06,12.37-13.25c2.19-2.25,5.16-4.41,4.8-7.96C670.71,423.96,665.88,429.07,661,434.1z M662.94,438.03
			c-2.04,2.22-4.72,4.41-4.33,7.8c5.46-4.91,10.18-10.58,15.31-15.83c1.58-1.38,1.35-3.61,1.68-5.47
			C671.06,428.72,667.21,433.57,662.94,438.03z M752.74,426.37c-5.15,4.9-9.7,10.41-15.03,15.13c-0.02,2.01-0.04,4.01-0.06,6.03
			c5.07-5.51,10.28-10.91,15.39-16.38C754.44,430.02,755.29,426.29,752.74,426.37z M658.97,448.21c0.11,0.93,0.32,2.78,0.43,3.71
			c5.06-7.48,14.1-12.76,16.58-21.55C669.76,435.74,664.27,441.94,658.97,448.21z M733.9,457.03c7.32-6.92,14.29-14.23,21.2-21.56
			c-0.06-1.09-0.18-3.26-0.24-4.35C747.27,439.18,737.74,446.26,733.9,457.03z M658.58,456.97c5.86-5.6,11.11-11.79,16.61-17.72
			c0.03-0.87,0.08-2.61,0.1-3.48C669.8,442.83,661.69,448.46,658.58,456.97z M711.7,481.4c1.79-0.02,3.58-0.03,5.37-0.04
			c10.36-10.36,20.57-20.87,30.71-31.45c3.07-3.66,8.25-6.59,7.24-12.16C740.12,451.83,726.13,466.84,711.7,481.4z M658.41,462.44
			c5.91-7.03,15.16-12.33,17.43-21.66C670.14,447.99,661.23,453.51,658.41,462.44z M719.05,481.06c3.03-1.02,6.63-1.42,8.71-4.13
			c8.01-9.03,16.76-17.36,24.96-26.22c1.65-1.54,1.49-3.94,1.83-5.97C742.65,456.78,730.7,468.78,719.05,481.06z M658.75,463.1
			c1.02,4.1,1.36,8.33,0.82,12.53c4.89-6.81,13.69-11.5,15.54-19.91c-3.27,2.76-11.84,11.98-15.32,14.52
			c2.13-5.04,14.53-13.16,14.97-18.96c-5.59,4.27-9.5,10.28-15.04,14.59c4.34-6.76,12.03-10.91,15.34-18.32
			C669.07,452.13,664.61,458.36,658.75,463.1z M727.77,478.68c3.61-0.52,8.61-3.05,10.72-5.98c0.33-0.85-0.61-0.1,0-0.79
			c9.63-0.66,12.34-12.46,15.09-20.13C744.54,460.28,735.84,469.24,727.77,478.68z M706.97,481.91c4.05,0.02,6.16-3.64,8.76-6.08
			c6-6.35,12.7-12.08,18.15-18.92C723.12,463.03,715.48,473.16,706.97,481.91z M659.31,480.37c5.74-5.75,12.02-11.6,15.72-18.87
			C669.26,467.17,662.33,472.79,659.31,480.37z M659.46,483.06c4.49-2.08,6.96-6.73,10.82-9.68c2.27-2.74,6.3-4.71,6.67-8.52
			C669.93,469.35,664.66,476.59,659.46,483.06z M680.07,482.26c0.81-0.08,2.43-0.24,3.23-0.31c5.1-5.39,9.65-11.31,14.48-16.93
			C690.52,469.02,686.01,476.6,680.07,482.26z M684.36,482.49c7.77-2.78,11.45-11.79,17.29-17.43
			C694.16,468.5,690.09,476.77,684.36,482.49z M703.55,465.46c-4.99,5.53-10.16,10.92-14.47,17.01c8.01-2.66,12.22-11.26,18-17.05
			C706.2,465.43,704.43,465.45,703.55,465.46z M693.43,482.18c8.12-2.06,11.42-11.72,17.23-17.24
			C703.17,468.51,699.26,476.57,693.43,482.18z M698.23,482.46c7.73-2.86,11.39-11.7,17.32-17.16
			C707.21,467.13,703.89,476.81,698.23,482.46z M662.98,482.92c4.96-0.86,7.39-6.01,10.98-9.03c2.16-2.96,6.41-4.72,7.03-8.55
			C674.34,470.45,668.56,476.68,662.98,482.92z M667.22,483.01c7.95-3.31,12.78-11.58,19.05-17.32
			C678.15,468.64,673.19,477.01,667.22,483.01z M671.89,482.95c5.64-2.18,13.19-12.23,17.65-16c-1.27,4.96-11.14,11.64-13.79,15.81
			c7.56-3.42,12.19-11.13,17.57-17.18c-1.65,0.77-3.48,1.49-4.55,3.07c0.02-0.73,0.07-2.2,0.09-2.93
			C682.73,470.97,677.17,476.86,671.89,482.95z M717.64,465.42c-4.3,5.54-10.78,10.85-14.62,16.76c7.6-2.85,11.71-11.2,17.95-16.27
			C719.82,465.92,718.78,465.41,717.64,465.42z"/>
	</g>
	<g>
		<path class="st0" d="M1064.7,331.32c7.56-0.53,15.17-0.62,22.72,0.07c0.86,29.93,0.34,59.91,0.54,89.86
			c11.5-12.26,24.21-23.27,36.07-35.15c1.65-1.71,3.71-3.15,6.22-2.75c9.49,0.28,19.08-0.6,28.48,1.04
			c-0.82,3.81-4.47,5.8-6.85,8.58c-12.62,12.16-25.77,23.78-37.91,36.43c13.61,18.22,27.69,36.11,41.82,53.93
			c-4.69,3.94-10.98,1-16.44,1.62c-4.34-0.1-10.09,1.83-12.83-2.75c-9.54-12.48-18.55-25.4-29.13-37c-3.42,3.04-6.83,6.09-10,9.4
			c-0.15,9.52,0.02,19.04-0.17,28.56c-0.5,0.38-1.49,1.12-1.98,1.5c-6.27,0.04-12.58,0.5-18.82-0.28c-2.87-0.48-1.93-3.93-2.14-5.97
			c0.4-20.68-0.28-41.36,0.52-62.03C1063.58,388.04,1064.85,359.67,1064.7,331.32z M1067.29,333.73c-0.08,2.03-0.13,4.07-0.14,6.12
			c2.11-1.77,4.11-3.66,6.01-5.65C1071.19,334.03,1069.24,333.88,1067.29,333.73z M1074.51,334.12c-2.73,3.98-8.86,6.26-7.51,12.02
			c4.31-3.87,8.4-7.99,12.62-11.96C1077.91,334.14,1076.21,334.12,1074.51,334.12z M1080.32,334.19c-3.8,4.92-8.65,8.87-13,13.27
			c-0.03,1.03-0.09,3.09-0.12,4.12c5.9-6.08,12.88-11.01,18.3-17.56C1083.76,334.06,1082.04,334.12,1080.32,334.19z M1067,353.49
			c0.04,0.82,0.12,2.46,0.17,3.27c4.06-3.45,7.57-7.49,11.72-10.86c2.86-2.8,7.23-5.33,6.59-9.98
			C1079.4,341.85,1072.74,347.23,1067,353.49z M1068.33,357.35c-1.66,1.3-1.19,3.59-1.47,5.42c6.25-5.75,12.54-11.48,18.38-17.65
			c0.02-0.96,0.05-2.88,0.07-3.84C1079.74,346.73,1073.69,351.69,1068.33,357.35z M1068.55,362.83c-2,1.46-1.49,4.03-1.64,6.18
			c5.98-4.99,11.1-10.88,16.86-16.11c2.12-1.51,1.8-4.09,1.57-6.35C1080.07,352.32,1074.09,357.35,1068.55,362.83z M1067.08,370.41
			c-0.05,1.63-0.09,3.26-0.11,4.91c5.46-5.33,10.98-10.59,16.7-15.64c2.19-1.61,1.45-4.57,1.75-6.88
			C1079.12,358.47,1073.52,364.89,1067.08,370.41z M1072.92,371.03c-2.55,2.79-6.62,4.98-6.12,9.38c4.08-3.4,7.72-7.29,11.83-10.66
			c2.83-2.77,6.83-5.41,6.48-9.91C1080.54,362.98,1076.92,367.23,1072.92,371.03z M1068.37,380.5c-1.84,1.45-1.16,4-1.4,6.03
			c4.53-3.94,8.7-8.28,13.15-12.3c2.58-2.67,7.09-5.31,4.65-9.61C1079.14,369.75,1073.83,375.2,1068.37,380.5z M1068.45,386.57
			c-1.93,1.46-1.24,4.07-1.44,6.14c6.17-5.72,12.34-11.45,18.25-17.44c0.06-1.68,0.12-3.34,0.18-5
			C1079.77,375.7,1074.14,381.16,1068.45,386.57z M1067.09,394.38c-0.02,1.6-0.04,3.21-0.04,4.82c6.08-6.32,11.85-12.94,18.23-18.99
			c0.01-0.88,0.04-2.64,0.05-3.52C1079.12,382.45,1072.87,388.19,1067.09,394.38z M1068.24,399.3c-1.79,1.58-0.96,4.2-1.25,6.29
			c4.21-4.3,7.99-9,12.32-13.19c2.96-2.97,7.09-5.85,6.14-10.67C1079.35,387.22,1073.97,393.44,1068.24,399.3z M1146.93,389.04
			c-26.83,25.91-53.63,51.82-79.84,78.34c-0.02,0.98-0.06,2.94-0.08,3.92c11.6-10.17,20.66-22.88,32.98-32.25
			c8.87-9.82,19.53-17.78,28.03-27.94c8.17-8.51,17.51-15.84,25.35-24.68C1151.04,386.77,1148.52,387.08,1146.93,389.04z
			 M1126.95,389.06c-6.38,7.59-16.58,15.51-23.38,22.69c-1.35-1.35,22.15-22.43,21.48-23.77c-1.55,1.68-23.14,22.26-23.55,24.67
			c-5.51,2.72-9.03,8.37-13.54,12.47c-1.13,0.06-2.25,0.12-3.37,0.19c-6.36,6.2-12.01,13.07-18.17,19.45
			c-0.03,1.44-0.05,2.89-0.07,4.35c6.42-6.68,19.1-20.8,25.93-27.04c-5.08,7.63-19.22,20.23-24.9,27.37
			c-1.47,1.52-0.88,3.79-1.13,5.69c21.69-23.41,45.23-45.03,67.12-68.23C1130.97,386.77,1128.4,386.85,1126.95,389.06z
			 M1067.98,455.16c-1.57,1.36-0.8,3.59-1.04,5.4c10.55-10.64,21.1-21.26,31.39-32.16c14.26-13.53,28.53-27.05,41.98-41.39
			c-1.68-0.04-3.36-0.06-5.03-0.07C1112.77,409.6,1089.54,431.57,1067.98,455.16z M1141.04,388.07c-5.68,5-10.39,10.99-15.97,16.09
			c-20.03,18.42-38.84,38.07-57.92,57.44c-0.09,1.51-0.18,3.03-0.26,4.56c26.35-26.88,53.81-52.61,80.4-79.27
			C1145.22,387.17,1142.67,386.37,1141.04,388.07z M1072.23,401.29c-2.7,3-6.03,6.03-5.85,10.46c4.31-2.68,7.26-6.92,10.91-10.36
			c3.54-3.9,8.9-7.33,7.84-13.41C1080.59,392.17,1076.47,396.8,1072.23,401.29z M1067.6,412.93c-1.79,1.49-0.89,3.97-1.13,5.96
			c4.28-3.89,7.83-8.48,12.04-12.42c2.99-3.23,7.43-6.24,6.59-11.27C1078.9,400.74,1073.43,407.03,1067.6,412.93z M1072.62,413.75
			c-2.66,3.17-6.82,6.02-6.06,10.73c5.03-4.59,9.2-10,13.94-14.89c2.13-2.61,5.42-5.03,5.02-8.81
			C1081.01,404.88,1077.08,409.57,1072.62,413.75z M1072.08,420.27c-2.55,2.78-6.16,5.42-5.51,9.74
			c5.81-5.67,11.3-11.66,16.97-17.46c1.85-1.5,1.51-4.04,1.71-6.12C1080.89,411.08,1076.4,415.59,1072.08,420.27z M1072.96,425.05
			c-3.27,3.55-8.12,6.87-6.73,12.45c4.54-4.86,8.54-10.2,13.42-14.73c2.59-2.99,6.79-5.92,5.41-10.45
			C1080.78,416.33,1077.13,420.93,1072.96,425.05z M1066.42,438.76c-0.03,1.55-0.05,3.11-0.06,4.67
			c5.76-6.26,11.31-12.72,17.33-18.74c1.82-1.6,1.03-4.34,1.57-6.41C1078.8,424.94,1072.55,431.79,1066.42,438.76z M1098.82,441.57
			c0.77,0.88,1.55,1.77,2.34,2.67c3.76-3.99,7.69-7.81,11.46-11.79c-0.42-0.7-1.24-2.11-1.65-2.81
			C1107.06,433.76,1102.82,437.55,1098.82,441.57z M1112.76,433.2c-3.59,4.05-7.93,7.44-11.15,11.82c0.37,0.53,1.09,1.57,1.45,2.1
			c4.12-3.88,7.96-8.05,11.95-12.06C1114.25,434.43,1113.51,433.81,1112.76,433.2z M1104.58,446.83c-1.26,0.79-0.26,3,1.22,2.41
			c4.02-3.44,7.49-7.49,11.35-11.1c-0.28-0.59-0.83-1.77-1.11-2.35C1111.9,439.11,1108.32,443.08,1104.58,446.83z M1106.59,449.82
			c-1.71,0.85,0.95,3.59,1.91,1.98c3.79-3.48,7.15-7.4,10.86-10.97c-0.32-0.52-0.96-1.57-1.29-2.09
			C1113.95,442.11,1110.39,446.1,1106.59,449.82z M1108.36,453.06c1,1.57,2.01,3.16,3.02,4.75c4.64-3.39,8.41-7.75,12.63-11.62
			c-0.73-0.68-1.46-1.35-2.18-2c-3.74,3.63-7.19,7.58-11.24,10.88c2.12-5.34,11.58-8.01,9.68-14.03
			C1116.31,445.05,1112.36,449.09,1108.36,453.06z M1123.89,447.1c-3.79,4.01-7.67,7.94-11.77,11.65c0.64,0.76,1.29,1.53,1.95,2.31
			c4.1-3.81,8.04-7.78,12.01-11.72C1125.34,448.59,1124.61,447.84,1123.89,447.1z M1114.79,461.64c0.32,0.54,0.97,1.63,1.29,2.17
			c3.93-3.58,7.25-7.89,11.81-10.72c-3.18,4.22-7.49,7.37-11.12,11.17c0.47,0.75,1.4,2.24,1.87,2.98
			c3.92-3.85,7.81-7.72,11.68-11.62c-1.3-1.81-2.58-3.62-3.86-5.43C1122.48,453.91,1118.56,457.71,1114.79,461.64z M1067.11,472.38
			c-0.03,0.99-0.09,2.99-0.11,3.98c5.48-5.27,10.8-10.72,16.17-16.1c1.53-1.25,1.64-3.25,1.75-5.06
			C1078.89,460.83,1073.08,466.69,1067.11,472.38z M1130.74,456.26c-3.81,3.9-7.7,7.72-11.61,11.53c0.67,0.78,1.34,1.56,2.02,2.35
			c4.07-3.74,8.25-7.35,12.27-11.15C1132.53,458.07,1131.63,457.16,1130.74,456.26z M1122,470.46c0.11,1.23,1.09,2.15,1.66,3.21
			c4.09-3.74,8.26-7.41,12.28-11.22c-0.45-0.69-1.36-2.06-1.82-2.74C1129.96,463.15,1125.84,466.67,1122,470.46z M1072.4,472.5
			c-2.44,2.52-5.83,4.77-5.63,8.74c5.7-4.75,10.91-10.02,16.32-15.08c1.69-1.38,1.22-3.84,1.73-5.73
			C1080.45,464.22,1076.54,468.48,1072.4,472.5z M1124.08,474.4c0.84,0.73,1.69,1.48,2.55,2.23c3.42-3.54,7.19-6.71,10.81-10.04
			c1.46-1.04-0.63-2.4-0.95-3.45C1132.37,466.91,1128.15,470.58,1124.08,474.4z M1067.7,482.52c4.81,0.17,7.9-3.71,11.19-6.56
			c2.73-2.59,6.5-5.09,5.74-9.44C1078.7,471.53,1073.12,476.97,1067.7,482.52z M1126.56,477.27c1.48,1.64,2.94,3.32,4.37,5.02
			c3.59-4,7.83-7.33,11.9-10.81c-0.72-0.74-1.43-1.47-2.13-2.2c-3.64,3.18-7,6.73-11.03,9.44c3.38-3.45,7.15-6.5,10.6-9.87
			c-0.53-0.8-1.06-1.58-1.58-2.36C1134.63,470.06,1130.77,473.86,1126.56,477.27z M1073.72,481.9c1.11,0.01,3.34,0.03,4.45,0.04
			c2.8-2.86,7.3-5.22,6.56-9.92C1080.93,475.16,1077.17,478.37,1073.72,481.9z M1142.79,472.33c-3.73,3.48-7.83,6.57-11.24,10.38
			c6.15,1.33,9.37-5.1,13.82-8.04C1144.5,473.88,1143.65,473.1,1142.79,472.33z M1145.74,475.4c-2.91,2.31-5.75,4.71-8.35,7.37
			c1.51,0.08,3.05,0.21,4.57,0.32c1.9-1.76,3.85-3.45,5.83-5.11C1147.1,477.11,1146.42,476.25,1145.74,475.4z M1079.02,482.35
			c1.69-0.02,3.39-0.05,5.09-0.08c0.22-1.62,0.44-3.23,0.65-4.84C1082.75,478.95,1080.82,480.58,1079.02,482.35z M1143.88,482.57
			c2.49,0.01,4.99,0.02,7.49,0.04c-0.99-1.34-1.99-2.68-2.97-4C1146.87,479.9,1145.35,481.21,1143.88,482.57z"/>
	</g>
	<g>
		<path class="st0" d="M780.81,340.4c0.4-2.43-1.37-7.61,2.47-7.57c6.87,0.07,13.74-0.74,20.59,0.11
			c1.18,49.51,0.01,99.04,0.74,148.55c-0.57,5.61-7.48,3.72-11.34,4.01c-4.24-0.41-11.86,2.28-12.34-4.11
			C780.18,434.38,782.31,387.39,780.81,340.4z M784.46,335.97c-0.15,1.37-0.28,2.75-0.42,4.14c1.63-1.5,3.22-3.05,4.74-4.65
			C787.34,335.62,785.9,335.79,784.46,335.97z M784.29,341.32c-0.03,1.58-0.05,3.17-0.07,4.76c3.44-3.27,6.81-6.62,10.25-9.9
			c-1.08-0.05-3.23-0.14-4.31-0.18C788.2,337.77,786.25,339.55,784.29,341.32z M784.25,347.48c0,1.02-0.01,3.07-0.02,4.09
			c5.2-5.45,11.49-9.75,16.32-15.56C793.05,335.4,789.67,343.68,784.25,347.48z M785.59,351.7c-1.73,1.29-1.48,3.6-1.8,5.5
			c3.95-3.46,7.43-7.41,11.51-10.72c2.8-2.59,6.83-5.11,6.12-9.54C796.19,341.91,790.78,346.69,785.59,351.7z M783.92,359.21
			c-0.41,3.47-0.09,7-0.54,10.49c5.69-5.03,10.81-10.64,16.36-15.81c1.99-1.56,1.66-4.23,1.95-6.45
			c-3.94,3.43-14.21,14.24-18.45,17.33c2.49-6.1,18.5-15.1,18.22-22.51C795.61,347.89,789,352.85,783.92,359.21z M783.75,370.76
			c-0.08,1.66-0.16,3.31-0.23,4.99c5.41-5.24,10.89-10.41,16.45-15.49c1.99-1.54,1.13-4.34,1.39-6.47
			C795.37,359.31,789.93,365.43,783.75,370.76z M784.86,376.03c-1.52,1.21-1.33,3.27-1.62,4.99c3.93-3.29,7.4-7.08,11.36-10.33
			c3.16-2.98,7.61-5.83,6.87-10.83C795.79,365.1,790.38,370.63,784.86,376.03z M783.54,382.31c0.03,1.12,0.11,3.37,0.14,4.49
			c5.44-4.9,10.74-9.96,15.99-15.06c2.13-1.56,1.53-4.37,1.7-6.64C795.15,370.55,789.53,376.62,783.54,382.31z M783.77,388.26
			c-0.03,1.23-0.1,3.7-0.14,4.93c5.78-5.6,11.82-10.93,17.39-16.74c0-1.17-0.01-3.53-0.01-4.71
			C795.2,377.18,789.48,382.71,783.77,388.26z M785.05,393.37c-1.81,1.57-1.38,4.1-1.58,6.24c4.45-3.91,7.91-8.77,12.23-12.82
			c2.31-2.47,5.85-4.64,5.33-8.54C795.37,382.91,790.12,388.08,785.05,393.37z M783.55,401.21c0.11,1.06,0.34,3.2,0.45,4.26
			c5.68-6.16,11.46-12.22,17.28-18.26c-0.15-1.32-0.29-2.65-0.42-3.96C794.77,388.92,789.23,395.14,783.55,401.21z M785.91,405
			c-3.54,3.63-1.7,9.12-2.3,13.63c4.07-3.59,7.41-7.91,11.36-11.62c2.92-3.07,7.11-6.02,6.2-10.87
			c-6.18,5.05-12.3,13.41-18.74,18.13c4.62-6.49,12.6-13,17.67-19.1c1.64-1.72,1.05-4.26,1.27-6.38
			C795.9,393.88,790.86,399.41,785.91,405z M790.62,412.74c-2.94,2.99-6.88,6.1-6.05,10.84c4.01-3.98,7.57-8.36,11.46-12.45
			c2.4-2.72,5.73-5.31,5.43-9.35C797.67,405.26,794.39,409.24,790.62,412.74z M789.06,420.24c-2.44,2.74-6.23,5.28-5.37,9.51
			c6.12-5.81,11.86-12.02,17.64-18.17c-0.01-1.09-0.03-3.25-0.04-4.33C797.42,411.77,793.05,415.83,789.06,420.24z M786.02,429.14
			c-2.23,1.74-1.83,4.61-1.79,7.13c3.62-3.71,6.62-7.98,10.44-11.51c3.1-3.34,7.66-6.55,6.73-11.75
			C796.09,418.21,791.28,423.89,786.02,429.14z M785,437.14c-1.22,1.46-0.57,3.55-0.84,5.29c5.74-6.04,11.03-12.5,17.1-18.22
			c0-1.69,0.01-3.36,0.01-5.03C795.91,425.22,789.98,430.76,785,437.14z M785.5,442.6c-1.7,1.56-1.1,4.01-1.29,6.06
			c5.19-5.92,10.53-11.7,15.84-17.51c1.57-1.41,1.16-3.65,1.36-5.51C795.74,430.94,790.69,436.85,785.5,442.6z M785.56,448.67
			c-1.54,1.48-1.26,3.68-1.43,5.63c3.4-3.35,6.41-7.07,9.87-10.35c3.38-3.64,8.78-6.8,7.37-12.62
			C796.04,437.05,790.5,442.6,785.56,448.67z M784.33,455.69c-0.03,1.69-0.04,3.39-0.05,5.1c4.03-4.11,7.5-8.73,11.58-12.8
			c2.46-2.9,6.32-5.4,5.56-9.77C795.41,443.72,789.9,449.75,784.33,455.69z M785.24,461.28c-1.21,1.23-0.86,3.09-1.17,4.65
			c5.94-5.69,11.61-11.65,17.21-17.68c0.03-1.54,0.05-3.08,0.08-4.6C795.79,449.35,790.54,455.34,785.24,461.28z M790.17,461.28
			c-2.72,2.83-6.87,5.34-6.05,9.91c5.93-5.12,10.75-11.43,17.07-16.13c0.06-1.77,0.1-3.54,0.15-5.28
			C797.54,453.53,794.08,457.63,790.17,461.28z M785.69,470.76c-1.69,1.29-1.34,3.56-1.59,5.43c5.9-5.47,11.38-11.37,17.15-16.97
			c0.01-0.98,0.04-2.94,0.05-3.92C796.43,460.78,791.01,465.73,785.69,470.76z M784.34,477.56c-0.04,0.87-0.13,2.62-0.18,3.49
			c5.86-5.12,11.33-10.66,17.09-15.89c0.01-1.46,0.03-2.92,0.04-4.37C795.54,466.27,789.99,471.97,784.34,477.56z M785.05,482.23
			c6.25,0.24,9.61-5.93,14.2-9.15c1.7-1.41,2.08-3.62,2.31-5.68C795.16,471.14,790.39,477.16,785.05,482.23z M799.25,473.08
			c-1.9,3.75-5.95,5.66-8.42,8.98c4.7,0.98,7.48-3.09,10.45-5.87c0.01-1.17,0.03-2.34,0.05-3.49
			C800.81,472.79,799.77,472.98,799.25,473.08z M796.76,481.95c1.48,0.04,2.97,0.07,4.47,0.11c0.01-1.48,0.03-2.94,0.04-4.4
			C799.72,479.04,798.19,480.45,796.76,481.95z"/>
	</g>
	<g>
		<path class="st0" d="M1185.62,338.32c-0.26-1.81,0.61-3.88,2.67-3.97c12.32-0.85,24.68,0.06,37.02-0.18
			c6.82,0.1,13.88-0.86,20.44,1.57c17.58,6.01,30.52,23.02,31.65,41.6c4.61,25.11-15.12,50.97-39.98,54.8
			c-13.16,0.54-26.36-0.14-39.53,0.28c0.16,17.59-0.22,35.19-0.74,52.77c-3.71-0.44-11.89,3.21-11.76-2.73
			C1185.72,434.41,1185.37,386.36,1185.62,338.32z M1197.96,346.33c0.23,24.54,0.1,49.08-0.19,73.62c11.53,0.49,23.07,0,34.6-0.11
			c20.6-0.9,38.63-22.16,34.05-42.74c-2.07-11.86-8.89-23.15-19.32-29.39c-13.02-6.14-27.91-3.05-41.79-3.94
			C1202.89,344.27,1197.3,342.16,1197.96,346.33z"/>
	</g>
	<path class="st0" d="M1729.81,334.84c2.41-2.05,6.54-0.72,8.56,1.4c4.06,4.93-2.73,13.31-8.34,10.17
		C1725.51,344.25,1726.09,337.53,1729.81,334.84z"/>
	<path class="st0" d="M660.09,356.63c6.14-6.43,12.16-13.19,19.41-18.39C673.19,344.51,666.82,350.79,660.09,356.63z"/>
	<path class="st0" d="M685.47,337.68c-1.9,3-6.75,6.81-8.6,8.17C678.12,343.64,684.09,338.15,685.47,337.68z"/>
	<path class="st0" d="M659.75,361.98c4.74-6.09,11.02-10.86,16.87-15.83C671.12,351.54,665.67,357.05,659.75,361.98z"/>
	<g>
		<path class="st0" d="M839.57,396.68c13.28-14.84,35.91-20.42,54.11-11.7c5.44,0.43,8.65,5,12.64,8.1c0.34-3.03-1.48-7.38,1.18-9.5
			c6.85-0.42,13.76-0.23,20.63,0c1.34,15.21-0.04,30.56,0.2,45.83c0.94,16.66,0.28,33.35,0.5,50.03c0.38,2.65-1.38,5.99-4.4,5.76
			c-5.83,0.08-11.73,0.53-17.5-0.51c-0.32-3.03-0.52-6.06-0.55-9.09c-12.44,8.3-28.46,17.09-43.5,10.29
			c-7.36-1.7-14.03-5.41-19.62-10.46C822.34,455.11,821.11,418.92,839.57,396.68z M865.96,386.2c-11.88,16.18-24.55,31.84-35,49.04
			c-1.7,2.47-0.81,5.59-0.74,8.37c6.73-8.85,11.68-18.93,18.65-27.61c7.69-10.91,16.26-21.15,24.47-31.66
			C870.84,384.38,867.49,383.57,865.96,386.2z M837.06,435.23c-3.01,5-8.17,9.86-5.6,16.24c4.89-8.21,10.52-16.01,15.29-24.25
			c1.98-9.72,9.23-17.03,17.54-21.85c5.69-6.69,11.1-13.69,16-20.99c-1.72-0.08-3.43-0.15-5.15-0.21
			C861.26,400.25,848.31,417.2,837.06,435.23z M881.61,384.31c-4.61,6.67-9.79,12.93-14.54,19.5c1.62-0.32,3.25-0.63,4.89-0.94
			c4.66-5.83,8.75-12.09,13.64-17.74C884.27,384.84,882.94,384.57,881.61,384.31z M857.47,388.74
			c-8.99,11.23-16.99,23.19-24.99,35.11c-2.46,3.1-2.87,7.11-2.76,10.94c11.78-17.05,23.77-34.03,36.68-50.22
			C863.35,385.7,859.6,385.98,857.47,388.74z M886.25,386c-4.67,5.53-9.05,11.3-13.12,17.29c2.16-0.64,4.82-0.75,6.05-2.94
			c3.7-5.01,7.86-9.64,12.36-13.93C889.77,386.26,888.01,386.12,886.25,386z M909.65,386.74c-0.02,1.33-0.03,2.66-0.03,4
			c1.32-1.34,2.63-2.68,3.93-4.04C912.24,386.71,910.94,386.72,909.65,386.74z M920.72,386.78c-7.32,8.26-14.88,16.31-21.84,24.88
			c0.78,0.71,1.57,1.42,2.37,2.14c7.84-9.34,16.71-17.8,24.32-27.33C923.95,386.56,922.33,386.66,920.72,386.78z M891.12,388.06
			c-4.57,4.45-8.63,9.42-12.34,14.61c3.81,1.3,5.8-2.38,7.94-4.77c2.38-3.05,5.23-5.72,7.45-8.89
			C894.85,387.11,891.97,386.73,891.12,388.06z M908.88,395c-5.92,2.81-9.13,8.95-13.71,13.37c1.05,0.85,2.09,1.71,3.14,2.57
			c6.52-8.65,14.28-16.21,21.2-24.52C914.13,385.65,910.55,390.56,908.88,395z M895.6,389.37c-4.54,4.3-8.39,9.3-12.34,14.14
			c0.74,0.23,2.2,0.68,2.94,0.91c4.2-4.61,8.42-9.21,12.24-14.15C897.73,390.04,896.31,389.59,895.6,389.37z M901.78,414.64
			c0.51,1.05,1.04,2.11,1.56,3.17c7-8.11,15.13-15.21,21.42-23.91c1.03-1.44,0.56-3.36,0.8-4.99
			C917.23,397.11,909.67,406.04,901.78,414.64z M832.14,416.4c1.19-4.11,8.49-13.16,10.15-17.04c-7.85,5.86-9.01,16-11.88,24.65
			c0.52-0.04,2.86-2.05,3.38-2.1c5.63-12.74,14.47-21.18,21.9-32.93C846.07,392.81,838.05,408.75,832.14,416.4z M898.79,391.12
			c-3.56,4.92-7.96,9.13-11.71,13.89c1.68-0.06,3.92,1.09,5.02-0.76c3.11-3.64,6.81-6.83,9.36-10.91
			C900.62,392.54,899.69,391.83,898.79,391.12z M892.01,405.5c0.39,0.65,1.18,1.95,1.57,2.59c4.11-3.44,7.33-7.75,10.91-11.71
			c-0.42-0.53-1.26-1.59-1.68-2.12C898.78,397.58,895.71,401.85,892.01,405.5z M904.32,418.63c0.27,1.3,0.55,2.6,0.83,3.91
			c4.91-4.17,8.79-9.37,13.18-14.05c3.07-3.92,8.79-6.96,7.06-12.85C918.36,403.3,911.01,410.67,904.32,418.63z M906.01,423.46
			c0.32,1.69,0.63,3.37,0.96,5.07c4.08-4.43,7.86-9.13,11.96-13.54c3.05-3.73,7.76-7.11,6.69-12.59
			C918.66,409.01,912.87,416.74,906.01,423.46z M872.76,406.08c-12.8,2.23-23.85,13.99-23.04,27.32
			c-1.18,14.69,11.18,28.91,25.85,29.79c7.74,1.12,15.37-2.39,20.93-7.59c11.23-13.08,10.06-36.4-4.97-46.21
			C885.77,406.64,879.13,404.89,872.76,406.08z M907.03,429.36c0.07,1.75,0.14,3.51,0.22,5.27c5.77-6.34,11.04-13.12,16.92-19.36
			c1.78-1.53,1.2-4.03,1.34-6.07C919.29,415.86,913.55,422.98,907.03,429.36z M908.96,434.07c-3.41,3.09-1.18,8.12-2.94,11.92
			c-2.39,7.44-7.93,13.53-14.45,17.66c-6.38,6.62-11.8,14.11-17.64,21.2c3.88-0.95,8.77,0,11.91-2.91
			c12.52-14.49,24.95-29.06,37.73-43.33c2.38-2.24,1.99-5.64,1.92-8.58c-15.83,17.68-30.31,36.6-46.47,53.93
			c14.14-18.62,30.27-35.66,44.83-53.96c2.11-2.13,1.76-5.16,1.63-7.89c-6.59,6.76-11.87,14.7-18.6,21.31
			c2.8-5.74,7.86-9.92,11.67-14.96c2.87-4.01,7.92-7.42,7.09-12.97C919.51,421.14,914.63,427.97,908.96,434.07z M833.25,450.4
			c-1.78,2.02,0.31,4.38,0.86,6.48c2.43-3.48,4.46-7.23,7.17-10.5c2.95-5.02,6.57-9.84,5.09-16.09
			C841.64,436.75,837.43,443.57,833.25,450.4z M886.91,482.12c2.03-0.46,4.46-0.38,5.79-2.27c10.68-11.38,20.88-23.2,31.05-35.03
			c1.84-1.68,1.21-4.38,1.47-6.55C911.98,452.46,899.51,467.36,886.91,482.12z M841.28,446.38c-1.5,4.08-4.13,7.58-6.51,11.17
			c0.66,1.15,1.32,2.31,1.99,3.48c3.69-5.08,7.94-9.72,11.59-14.83c-0.63-2.17-1.22-4.35-1.8-6.52
			C844.95,442.03,843.25,444.32,841.28,446.38z M897.05,477.1c9.36-3.25,14.18-12.44,20.66-19.23c3.33-3.85,8.7-7.11,7.65-13
			C915.96,455.64,906.16,466.09,897.05,477.1z M848.65,447.15c-4.12,4.58-7.37,9.84-11.38,14.52c0.45,1.28,0.89,2.57,1.34,3.88
			c4.17-4.9,8.03-10.05,12.29-14.87C850.14,449.49,849.4,448.33,848.65,447.15z M839.34,466.47c0.82,0.83,1.65,1.66,2.48,2.49
			c3.58-5.07,7.67-9.77,11.4-14.73c-0.53-1.06-1.12-2.08-1.76-3.06C847.32,456.2,843.41,461.4,839.34,466.47z M907.16,471.84
			c0.68,1,1.37,2,2.06,3.01c1.93-2.22,3.95-4.36,5.96-6.5c3.27-5.61,10.88-9.17,9.98-16.55C918.62,457.98,912.98,465,907.16,471.84z
			 M842.15,470.18c0.57,0.59,1.71,1.78,2.28,2.37c3.86-5.38,7.41-11.1,12.26-15.67c-3.15,5.76-7.84,10.5-11.67,15.8
			c0.77,0.8,1.55,1.61,2.33,2.42c4.22-4.97,8.19-10.13,12.45-15.06c-1.61-1.98-3.42-3.78-5.42-5.34
			C849.92,459.54,846.11,464.93,842.15,470.18z M860.45,460.4c-4.19,5.13-8.37,10.26-12.59,15.37c0.66,0.39,1.98,1.17,2.64,1.56
			c4.6-4.9,8.54-10.39,12.54-15.79C862.39,461.26,861.1,460.69,860.45,460.4z M915.18,468.35c-1.14,3.22-3.83,5.48-5.98,8.03
			c-0.04,1.85-0.08,3.7-0.15,5.56c2.73,0.29,5.42-0.36,7.06-2.73c3.36-4.29,9.43-7.51,9.03-13.68c-5.73,4.61-9.64,11.05-15.39,15.62
			c4.14-8.14,15.28-12.69,15.25-22.44C921.52,461.71,919.18,465.96,915.18,468.35z M851.44,478.26c0.67,0.29,2.01,0.85,2.69,1.13
			c4.43-5.23,8.42-10.82,12.7-16.18c-0.72-0.15-2.16-0.44-2.89-0.59C859.51,467.59,855.67,473.1,851.44,478.26z M867.54,464.22
			c-4.26,4.97-8.06,10.3-12.25,15.33c0.45,0.35,1.33,1.06,1.78,1.41c5-4.52,8.14-10.84,13.06-15.55
			C869.48,465.12,868.19,464.52,867.54,464.22z M868.24,483.69c1.35,0.43,2.71,0.85,4.08,1.28c5.94-6.74,11.43-13.87,17.04-20.89
			C878.98,465.83,875.48,477.38,868.24,483.69z M869.98,466.83c-3.87,4.64-7.54,9.45-11.17,14.28c1.09,0.4,2.17,0.81,3.26,1.23
			c4.43-5.4,9.05-10.66,12.97-16.46C873.42,466.2,871.15,465.33,869.98,466.83z M876.4,466.44c-4.29,5.54-8.79,10.9-13.29,16.27
			c1.35,0.38,2.71,0.77,4.07,1.17c4.86-5.94,9.57-12.02,14.62-17.79C880,466.2,878.2,466.33,876.4,466.44z M915.04,481.87
			c5.81,0.91,11.07-5.03,10.24-10.7C921.78,474.65,918.2,478.07,915.04,481.87z M924.44,478.59c-1.29-0.01-2.38,1.68-1.66,2.82
			C924.34,482.8,926.33,479.26,924.44,478.59z"/>
	</g>
	<g>
		<path class="st0" d="M960.42,402.52c11.95-18.56,37.52-25.84,57.92-18.42c10.17,2.65,20.09,8.53,25.34,17.92
			c1.09,1.57,1.25,4.06-0.49,5.24c-5.27,4.15-10.91,7.9-17.04,10.64c-6.67-6.48-14.67-13.65-24.57-13.27
			c-7.92,1.15-16.48,3.98-21,11.09c-7.24,7-7.43,18.23-5.74,27.5c4.01,11.87,15.29,22.41,28.46,21.37
			c5.53-0.87,11.56-2.32,15.29-6.85c2.33-2.93,4.54-6.01,7.61-8.24c5.58,4.83,12.64,7.53,17.95,12.67
			c-8.42,10.52-18.92,20.59-32.6,23.35c-18.16,5.75-38.5-2.89-49.61-17.72c-1.65-3.25-3.9-6.08-6.03-9
			C947.34,441.12,949.13,418.58,960.42,402.52z M989.97,387.25c-12.12,16.23-24.74,32.17-35.11,49.61c-1.25,2.26-0.35,4.9,0.09,7.26
			c4.58-6.83,9.04-13.74,13.39-20.72c9.2-13.81,20.1-26.36,29.92-39.72C995.3,384.24,991.66,384.28,989.97,387.25z M998.46,385.55
			c-6.32,7.39-12.14,15.22-18.24,22.8c-1.36,1.52-2.24,3.34-2.39,5.41c3.49-5.02,9.14-7.49,13.64-11.32
			c4.74-5.9,9.47-11.84,13.72-18.12C1002.98,384.53,1000.01,383.4,998.46,385.55z M1006.48,384.4c-4.74,6.32-9.57,12.57-14.33,18.88
			c1.65-0.31,3.31-0.61,4.97-0.92c4.58-6.02,9.11-12.09,13.64-18.15C1009.33,384.26,1007.9,384.32,1006.48,384.4z M1011.45,385.47
			c-4.59,5.01-8.3,10.73-12.5,16.06c0.9,0.05,2.7,0.16,3.6,0.21c4.63-5.45,8.88-11.25,14.19-16.09
			C1014.97,385.58,1013.22,385.54,1011.45,385.47z M981.94,389.09c-9.69,12.18-18.28,25.17-26.71,38.25
			c-1.57,2.44-0.77,5.5-0.91,8.23c10.85-17.34,23.73-33.26,35.47-49.98C987.06,386.35,983.78,386.64,981.94,389.09z M1017.28,386.25
			c-4.64,4.93-9.32,9.89-13.01,15.6c0.79,0.03,2.36,0.1,3.15,0.14c4.83-4.54,8.72-10,13.18-14.89
			C1019.77,386.88,1018.11,386.46,1017.28,386.25z M1008.61,402.54c0.71,0.29,2.14,0.87,2.86,1.16c4.5-4.95,9.02-9.9,13.11-15.21
			c-0.81-0.16-2.43-0.47-3.23-0.63C1016.88,392.56,1012.78,397.59,1008.61,402.54z M965.71,403.25
			c-4.47,7.36-10.81,14.13-11.47,23.16c8.73-12.42,17.19-25.06,26.17-37.3C973.03,390.78,969.81,397.76,965.71,403.25z
			 M1023.9,390.73c-3.57,4.4-7.36,8.61-11.06,12.9c1.03,0.54,2.06,1.08,3.1,1.64c3.94-4.86,8.33-9.31,12.56-13.91
			C1027.07,391.18,1025.05,388.99,1023.9,390.73z M1016.57,405.75c0.68,0.41,2.04,1.22,2.73,1.63c4.15-4.42,7.99-9.11,12.22-13.45
			c-0.75-0.74-1.5-1.48-2.24-2.2C1025,396.37,1020.69,400.98,1016.57,405.75z M1032.56,394.27c-4.28,4.41-8.26,9.11-12.45,13.61
			c1.08,0.92,2.16,1.84,3.25,2.77c3.71-4.91,7.83-9.51,11.65-14.35C1034.19,395.62,1033.37,394.94,1032.56,394.27z M1035.72,397.09
			c-3.91,4.85-7.81,9.71-12.09,14.24c0.76,0.76,1.52,1.52,2.28,2.28c4.26-4.51,8.14-9.37,12.59-13.7
			C1037.57,398.96,1036.65,398.02,1035.72,397.09z M965.59,401.29c1.19,0.37,2.61-1.39,2.01-2.48
			C966.38,398.4,964.96,400.18,965.59,401.29z M1026.42,415c6-2.03,10.32-6.83,14.82-11.04c-0.69-1.07-1.38-2.15-2.06-3.21
			C1034.67,405.26,1030.37,410,1026.42,415z M958.85,411.49c2.68-2.44,4.69-8.07,7.74-10.15c-0.21-0.56-0.66-1.03-0.88-1.58
			C963.45,403.08,960.37,407.75,958.85,411.49z M959.6,438.81c-2.49,3.63-5.77,7.72-3.08,12.23c7.21-11.62,15.8-22.52,19.75-35.78
			C969.09,421.54,965.31,431.13,959.6,438.81z M958.14,450.33c-1.74,2.1,0.01,4.66,0.48,6.88c4.82-8.63,13.87-16.31,12.69-27.01
			C966.48,436.61,962.39,443.53,958.14,450.33z M959.44,458.4c0.41,1.2,0.81,2.42,1.22,3.64c3.7-5,7.71-9.75,11.61-14.59
			c2.17-2.33-0.34-5.24-0.85-7.7C966.91,445.61,963.18,452.03,959.44,458.4z M973.42,446.91c-4.41,5.13-7.75,11.16-12.81,15.73
			c1.04,0.83,2.07,1.67,3.11,2.53c4.07-4.88,7.8-10.02,12.04-14.75C974.99,449.23,974.19,448.08,973.42,446.91z M965.93,464.04
			c-1.84,1.46-0.94,3.4,0.37,4.88c3.9-4.63,7.48-9.52,11.27-14.24c-0.33-0.9-1.01-2.7-1.34-3.6
			C972.71,455.33,969.41,459.75,965.93,464.04z M1021.65,458.87c-8.9,6.97-15.07,16.58-22.39,25.04c1.47,0.12,2.97,0.26,4.46,0.39
			c7.4-10.57,16.01-20.34,24.66-29.93C1025.04,451.79,1023.95,457.33,1021.65,458.87z M978.74,454.94
			c-4.08,4.64-7.56,9.76-11.48,14.52c1.7,1.76,3.4,3.53,5.12,5.29c3.66-4.72,7.72-9.11,11.19-13.97c-0.95-0.77-1.89-1.53-2.83-2.29
			c-3.61,4.4-6.67,9.25-10.64,13.33c2.7-5.34,6.99-9.61,10.27-14.56C979.85,456.46,979.31,455.68,978.74,454.94z M1028.76,455.05
			c-8.22,9.75-16.59,19.38-24.5,29.38c6.35-0.06,9-6.29,12.83-10.24c5.33-5.43,9.6-11.77,15.02-17.11
			C1030.99,456.39,1029.87,455.72,1028.76,455.05z M1011.27,482.62c2.26-0.65,4.73-1.23,6.34-3.07
			c6.13-6.38,11.76-13.21,17.85-19.62c-0.84-0.89-1.68-1.77-2.51-2.63C1025.5,465.53,1018.37,474.08,1011.27,482.62z
			 M1036.64,460.15c-5.9,6.2-11.58,12.62-17.3,18.98c9.4-2.19,12.91-11.94,20.89-16.16
			C1039.03,462.03,1037.83,461.08,1036.64,460.15z M984.53,461.17c-3.84,4.68-7.66,9.39-11.63,13.97c1.07,0.44,2.14,0.88,3.22,1.34
			c3.61-4.38,7.13-8.84,10.6-13.34C985.99,462.47,985.26,461.82,984.53,461.17z M978.34,475.39c-2.48,1.55,0.8,5.06,2.06,2.14
			c3-4.69,8.82-8.61,8.94-14.46C984.57,465.95,982.15,471.43,978.34,475.39z M980.21,479.34c0.66,0.3,1.99,0.88,2.66,1.17
			c3.6-4.91,7.28-9.76,11.05-14.54C987.06,466.52,984.99,475.19,980.21,479.34z M993.21,483.63c1.74-0.23,4.14,1.04,5.45-0.67
			c4.94-5.45,9.35-11.37,13.95-17.1C1002.92,466.76,999.62,477.72,993.21,483.63z M983.32,481.8c7.84-0.36,10.52-9.72,15.6-14.53
			c-0.98-0.18-2.94-0.54-3.93-0.72C990.97,471.52,986.7,476.35,983.32,481.8z M1000.42,467.41c-3.92,4.94-8,9.75-12.08,14.56
			c1.28,0.45,2.57,0.91,3.86,1.37c4.37-5.31,8.78-10.59,13.09-15.95C1003.66,467.39,1002.04,467.39,1000.42,467.41z"/>
	</g>
	<path class="st0" d="M1687.22,384.51c3.17-0.12,6.36-0.16,9.54-0.02c0.09,32.61-0.37,65.23,0.13,97.84
		c-3.09,0.58-6.24,0.64-9.35,0.34c-0.3-2.48-0.6-4.95-0.88-7.42c-7.13,5.19-15.18,10.39-24.36,10.13
		c-8.32-0.18-16.94,0.03-24.84-2.91c-10.36-5.85-18.91-16.7-18.73-29.04c0.14-21.68-0.12-43.36,0.16-65.04
		c-0.24-5.03,6.23-2.8,9.33-2.94c0.27,22.68-0.56,45.38,0.46,68.05c1.01,7.89,4.97,16.38,12.5,19.9c8.78,2.34,18.08,1.98,27.03,0.87
		c9.1-2.03,18.5-9.66,17.77-19.83C1688.17,431.18,1685.58,407.72,1687.22,384.51z"/>
	<g>
		<path class="st0" d="M1290.25,428.36c3.86-22.94,24.29-45.47,49.05-43.12c15.74,1.95,30.88,12.42,36.68,27.45
			c3.64,8.28,6.54,17.18,5.98,26.33c-27.12,1.1-54.32,0.04-81.47,0.36c0.71,14.98,9.83,30.45,24.22,35.86
			c9.96,2.57,21.32,1.64,29.8-4.62c7.51-4.57,11.34-12.79,15.52-20.16c2.75,1.58,7.65,1.45,8.63,4.95
			c-5.39,11.72-13.82,22.96-25.83,28.45c-13.5,5.81-30.08,4.41-42.37-3.64C1294.1,468.79,1288.95,447.28,1290.25,428.36z
			 M1332.77,397.17c-15.36,2.7-27.02,16.02-31.05,30.59c22.93,0.19,45.86,0.3,68.79,0.24c-2.01-9.43-7.88-17.52-15.29-23.49
			C1349.34,398.9,1340.95,395.21,1332.77,397.17z"/>
	</g>
	<path class="st0" d="M1729.43,385.78c3.16-0.08,6.34-0.08,9.52,0c1.25,32.13-0.16,64.38-0.02,96.54c0.05,4.57-5.72,2.56-8.56,2.82
		c-2.2-3.16-1.8-7.11-1.7-10.74C1729.67,444.87,1727.78,415.25,1729.43,385.78z"/>
	<path class="st0" d="M1776.4,395.8c11.69-11.91,29.97-12.49,45.4-9.65c15.4,3.91,23.5,20.38,23.82,35.27
		c-0.13,19.62,0.52,39.28-0.34,58.89c0.14,5.75-7.46,5.43-10.43,2.23c0.17-22.4,1.18-44.8,0.39-67.19
		c-1.77-10.56-10.96-19.83-21.86-20.49c-8.55-0.37-17.74-0.57-25.28,4.14c-6.85,3.36-11.23,10.84-11.3,18.4
		c0.07,21.63,0.2,43.26,0.14,64.89c-0.11,5.38-6.94,3.49-10.4,3.16c-0.22-32.71-0.37-65.41-0.09-98.11
		c3.21-0.39,6.46-0.41,9.68-0.08C1776.27,390.1,1776.35,392.95,1776.4,395.8z"/>
	<path class="st0" d="M1415.23,396.4c13.88-12.56,35.34-13.47,51.63-5.24c9.89,4.3,16.39,14.64,17.36,25.19
		c0.18,22.01,0.04,44.03-0.6,66.04c0.28,5-6.7,3.82-9.66,2.58c-0.69-23.13,0.77-46.39-0.25-69.55c-0.56-10.26-10.45-16.7-19.5-19.04
		c-11.09-1.09-24.03-1.05-32.38,7.55c-3.4,3.25-5.89,7.61-6.21,12.37c-1.08,23.65,0.49,47.33,0.07,70.98
		c-3.31,0.12-6.62,0.06-9.9-0.34c-0.38-31.85-1.15-63.72-0.54-95.58c-0.15-5.13,6.43-2.73,9.6-2.81
		C1414.99,391.16,1415.1,393.77,1415.23,396.4z"/>
	<g>
		<path class="st0" d="M1536.79,387.26c11.45-2.56,23.19,0.92,33.29,6.33c4.41-5.36,11.89-8.32,18.73-6.64
			c1.74,3.03,0.65,7.01-1.18,9.77c-4.23,0.42-10.35,1.17-10.49,6.68c5.14,10.7,7.29,23.84,2.04,34.93
			c-8.26,19.06-33.6,24.07-50.88,14.72c-2.34,2.88-4.13,6.6-2.98,10.39c1.75,3.81,6,5.77,9.96,6.42c12.77,1.5,25.95-0.42,38.48,2.97
			c9.21,3.93,18.72,11.69,18.77,22.59c1.2,10.45-5.37,19.88-13.21,26.06c-10.25,7.62-23.64,9.02-36.02,8.29
			c-8.01-0.94-16.39-1.79-23.4-6.12c-10.71-6.21-16.26-20.28-12.25-32.07c2.07-7,7.33-12.35,12.52-17.21
			c-8.17-7.47-8.09-20.12-0.88-28.22c-9.28-10.44-11.42-25.94-5.8-38.66C1516.59,396.86,1526.67,390.24,1536.79,387.26z
			 M1539.77,398.19c-12.45,1.52-19.33,14.64-18.66,26.19c-0.17,15.07,17.04,26.93,31.11,22.05c8-2.64,15.91-7.94,18.85-16.19
			c3.32-9.5-0.68-20.2-7.73-26.91C1556.97,397.74,1547.88,396.29,1539.77,398.19z M1532.58,480.61
			c-6.08,3.66-13.46,8.03-14.48,15.76c-1.56,7.36,2.59,15.45,9.36,18.65c9.03,5.18,19.84,4.84,29.86,4.05
			c10.39-1.14,19.87-7.84,24.06-17.44c1.98-6.96-2.58-14.58-8.86-17.63c-8.11-5.31-18.16-2.95-27.24-3.18
			C1541.04,481.28,1536.67,479.35,1532.58,480.61z"/>
	</g>
	<path class="st0" d="M1105.04,409.65c-4.45,6.78-10.84,12.09-16.74,17.58c3.5-5.63,9-9.83,13.67-14.91
		C1103.12,411.29,1103.83,410.61,1105.04,409.65z"/>
	<path class="st0" d="M733.88,476.9c3.75-4.33,11.99-13.84,16.5-17.4C747.02,464.12,738.82,473.84,733.88,476.9z"/>
	<path class="st0" d="M686.74,470.3c0.72-1.49,2.25-3.94,4.06-3.46C689.86,467.82,688.37,470.2,686.74,470.3z"/>
</g>
</svg>
